<svg width="400" height="300" viewBox="0 0 400 300" fill="none" xmlns="http://www.w3.org/2000/svg">
<g clip-path="url(#clip0_1797_38210)">
<rect width="400" height="300" fill="white"/>
<rect width="600" height="600" transform="translate(-100 -150)" fill="white"/>
<circle cx="20" cy="2" r="2" fill="#B6BEC9"/>
<circle cx="52" cy="2" r="3.5" stroke="#B6BEC9"/>
<circle cx="84" cy="2" r="3.5" stroke="#B6BEC9"/>
<circle cx="116" cy="2" r="3.5" stroke="#B6BEC9"/>
<circle cx="148" cy="2" r="3.5" stroke="#B6BEC9"/>
<circle cx="180" cy="2" r="3.5" stroke="#B6BEC9"/>
<circle cx="212" cy="2" r="3.5" stroke="#B6BEC9"/>
<circle cx="244" cy="2" r="3.5" stroke="#B6BEC9"/>
<circle cx="276" cy="2" r="3.5" stroke="#B6BEC9"/>
<circle cx="308" cy="2" r="2" fill="#B6BEC9"/>
<circle cx="340" cy="2" r="2" fill="#B6BEC9"/>
<circle cx="372" cy="2" r="3.5" stroke="#B6BEC9"/>
<circle cx="20" cy="34" r="2" fill="#B6BEC9"/>
<circle cx="52" cy="34" r="3.5" stroke="#B6BEC9"/>
<circle cx="84" cy="34" r="3.5" stroke="#B6BEC9"/>
<circle cx="116" cy="34" r="3.5" stroke="#B6BEC9"/>
<circle cx="148" cy="34" r="3.5" stroke="#B6BEC9"/>
<circle cx="180" cy="34" r="3.5" stroke="#B6BEC9"/>
<circle cx="212" cy="34" r="3.5" stroke="#B6BEC9"/>
<circle cx="244" cy="34" r="3.5" stroke="#B6BEC9"/>
<circle cx="276" cy="34" r="3.5" stroke="#B6BEC9"/>
<circle cx="308" cy="34" r="2" fill="#B6BEC9"/>
<circle cx="340" cy="34" r="2" fill="#B6BEC9"/>
<circle cx="372" cy="34" r="2" fill="#B6BEC9"/>
<circle cx="20" cy="66" r="3.5" stroke="#B6BEC9"/>
<circle cx="52" cy="66" r="3.5" stroke="#B6BEC9"/>
<circle cx="84" cy="66" r="3.5" stroke="#B6BEC9"/>
<circle cx="116" cy="66" r="2" fill="#B6BEC9"/>
<circle cx="148" cy="66" r="2" fill="#B6BEC9"/>
<circle cx="180" cy="66" r="3.5" stroke="#B6BEC9"/>
<circle cx="212" cy="66" r="3.5" stroke="#B6BEC9"/>
<circle cx="244" cy="66" r="2" fill="#B6BEC9"/>
<circle cx="276" cy="66" r="2" fill="#B6BEC9"/>
<circle cx="308" cy="66" r="2" fill="#B6BEC9"/>
<circle cx="340" cy="66" r="2" fill="#B6BEC9"/>
<circle cx="372" cy="66" r="2" fill="#B6BEC9"/>
<circle cx="20" cy="98" r="3.5" stroke="#B6BEC9"/>
<circle cx="52" cy="98" r="2" fill="#B6BEC9"/>
<circle cx="84" cy="98" r="2" fill="#B6BEC9"/>
<circle cx="116" cy="98" r="3.5" stroke="#B6BEC9"/>
<circle cx="148" cy="98" r="3.5" stroke="#B6BEC9"/>
<circle cx="180" cy="98" r="2" fill="#B6BEC9"/>
<circle cx="212" cy="98" r="2" fill="#B6BEC9"/>
<circle cx="244" cy="98" r="3.5" stroke="#B6BEC9"/>
<circle cx="276" cy="98" r="3.5" stroke="#B6BEC9"/>
<circle cx="308" cy="98" r="3.5" stroke="#B6BEC9"/>
<circle cx="340" cy="98" r="3.5" stroke="#B6BEC9"/>
<circle cx="372" cy="98" r="2" fill="#B6BEC9"/>
<circle cx="20" cy="130" r="3.5" stroke="#B6BEC9"/>
<circle cx="52" cy="130" r="3.5" stroke="#B6BEC9"/>
<circle cx="84" cy="130" r="3.5" stroke="#B6BEC9"/>
<circle cx="116" cy="130" r="2" fill="#B6BEC9"/>
<circle cx="148" cy="130" r="2" fill="#B6BEC9"/>
<circle cx="180" cy="130" r="3.5" stroke="#B6BEC9"/>
<circle cx="212" cy="130" r="3.5" stroke="#B6BEC9"/>
<circle cx="244" cy="130" r="3.5" stroke="#B6BEC9"/>
<circle cx="276" cy="130" r="3.5" stroke="#B6BEC9"/>
<circle cx="308" cy="130" r="2" fill="#B6BEC9"/>
<circle cx="340" cy="130" r="2" fill="#B6BEC9"/>
<circle cx="372" cy="130" r="3.5" stroke="#B6BEC9"/>
<circle cx="20" cy="162" r="2" fill="#B6BEC9"/>
<circle cx="52" cy="162" r="3.5" stroke="#B6BEC9"/>
<circle cx="84" cy="162" r="3.5" stroke="#B6BEC9"/>
<circle cx="116" cy="162" r="3.5" stroke="#B6BEC9"/>
<circle cx="148" cy="162" r="3.5" stroke="#B6BEC9"/>
<circle cx="180" cy="162" r="3.5" stroke="#B6BEC9"/>
<circle cx="212" cy="162" r="3.5" stroke="#B6BEC9"/>
<circle cx="244" cy="162" r="2" fill="#B6BEC9"/>
<circle cx="276" cy="162" r="2" fill="#B6BEC9"/>
<circle cx="308" cy="162" r="3.5" stroke="#B6BEC9"/>
<circle cx="340" cy="162" r="3.5" stroke="#B6BEC9"/>
<circle cx="372" cy="162" r="2" fill="#B6BEC9"/>
<circle cx="20" cy="194" r="3.5" stroke="#B6BEC9"/>
<circle cx="52" cy="194" r="2" fill="#B6BEC9"/>
<circle cx="84" cy="194" r="2" fill="#B6BEC9"/>
<circle cx="116" cy="194" r="3.5" stroke="#B6BEC9"/>
<circle cx="148" cy="194" r="3.5" stroke="#B6BEC9"/>
<circle cx="180" cy="194" r="3.5" stroke="#B6BEC9"/>
<circle cx="212" cy="194" r="3.5" stroke="#B6BEC9"/>
<circle cx="244" cy="194" r="2" fill="#B6BEC9"/>
<circle cx="276" cy="194" r="2" fill="#B6BEC9"/>
<circle cx="308" cy="194" r="3.5" stroke="#B6BEC9"/>
<circle cx="340" cy="194" r="3.5" stroke="#B6BEC9"/>
<circle cx="372" cy="194" r="2" fill="#B6BEC9"/>
<circle cx="20" cy="226" r="3.5" stroke="#B6BEC9"/>
<circle cx="52" cy="226" r="3.5" stroke="#B6BEC9"/>
<circle cx="84" cy="226" r="3.5" stroke="#B6BEC9"/>
<circle cx="116" cy="226" r="3.5" stroke="#B6BEC9"/>
<circle cx="148" cy="226" r="3.5" stroke="#B6BEC9"/>
<circle cx="180" cy="226" r="3.5" stroke="#B6BEC9"/>
<circle cx="212" cy="226" r="3.5" stroke="#B6BEC9"/>
<circle cx="244" cy="226" r="3.5" stroke="#B6BEC9"/>
<circle cx="276" cy="226" r="3.5" stroke="#B6BEC9"/>
<circle cx="308" cy="226" r="2" fill="#B6BEC9"/>
<circle cx="340" cy="226" r="2" fill="#B6BEC9"/>
<circle cx="372" cy="226" r="2" fill="#B6BEC9"/>
<circle cx="20" cy="258" r="3.5" stroke="#B6BEC9"/>
<circle cx="52" cy="258" r="3.5" stroke="#B6BEC9"/>
<circle cx="84" cy="258" r="3.5" stroke="#B6BEC9"/>
<circle cx="116" cy="258" r="3.5" stroke="#B6BEC9"/>
<circle cx="148" cy="258" r="3.5" stroke="#B6BEC9"/>
<circle cx="180" cy="258" r="3.5" stroke="#B6BEC9"/>
<circle cx="212" cy="258" r="3.5" stroke="#B6BEC9"/>
<circle cx="244" cy="258" r="2" fill="#B6BEC9"/>
<circle cx="276" cy="258" r="2" fill="#B6BEC9"/>
<circle cx="308" cy="258" r="3.5" stroke="#B6BEC9"/>
<circle cx="340" cy="258" r="3.5" stroke="#B6BEC9"/>
<circle cx="372" cy="258" r="3.5" stroke="#B6BEC9"/>
<circle cx="20" cy="290" r="3.5" stroke="#B6BEC9"/>
<circle cx="52" cy="290" r="3.5" stroke="#B6BEC9"/>
<circle cx="84" cy="290" r="3.5" stroke="#B6BEC9"/>
<circle cx="116" cy="290" r="3.5" stroke="#B6BEC9"/>
<circle cx="148" cy="290" r="3.5" stroke="#B6BEC9"/>
<circle cx="180" cy="290" r="3.5" stroke="#B6BEC9"/>
<circle cx="212" cy="290" r="3.5" stroke="#B6BEC9"/>
<circle cx="244" cy="290" r="2" fill="#B6BEC9"/>
<circle cx="276" cy="290" r="2" fill="#B6BEC9"/>
<circle cx="308" cy="290" r="3.5" stroke="#B6BEC9"/>
<circle cx="340" cy="290" r="3.5" stroke="#B6BEC9"/>
<circle cx="372" cy="290" r="2" fill="#B6BEC9"/>
<rect width="400" height="300" fill="url(#paint0_radial_1797_38210)"/>
<g filter="url(#filter0_dddd_1797_38210)">
<rect x="82" y="132.5" width="220" height="74" rx="8" fill="#F4F4F4"/>
<rect x="82.5" y="133" width="219" height="73" rx="7.5" stroke="#E9EBED"/>
<circle cx="106" cy="156.5" r="8" fill="#D1D5DB"/>
<rect width="123.2" height="8" rx="4" transform="matrix(-1 0 0 1 245.2 152.5)" fill="#E9EBED"/>
</g>
<g filter="url(#filter1_dddd_1797_38210)">
<rect x="98" y="116.5" width="220" height="74" rx="8" fill="#F4F4F4"/>
<rect x="98.5" y="117" width="219" height="73" rx="7.5" stroke="url(#paint1_linear_1797_38210)"/>
<rect x="98.5" y="117" width="219" height="73" rx="7.5" stroke="url(#paint2_linear_1797_38210)"/>
<ellipse cx="122" cy="140.5" rx="8" ry="8" fill="#341478"/>
<rect width="120" height="8" rx="4" transform="matrix(-1 0 0 1 258 136.5)" fill="#E9EBED"/>
<rect x="138" y="152.5" width="72" height="8" rx="4" fill="#E9EBED"/>
</g>
</g>
<defs>
<filter id="filter0_dddd_1797_38210" x="76.8667" y="131.767" width="230.267" height="92.3333" filterUnits="userSpaceOnUse" color-interpolation-filters="sRGB">
<feFlood flood-opacity="0" result="BackgroundImageFix"/>
<feColorMatrix in="SourceAlpha" type="matrix" values="0 0 0 0 0 0 0 0 0 0 0 0 0 0 0 0 0 0 127 0" result="hardAlpha"/>
<feOffset dy="0.733333"/>
<feGaussianBlur stdDeviation="0.733333"/>
<feColorMatrix type="matrix" values="0 0 0 0 0 0 0 0 0 0.027451 0 0 0 0 0.0862745 0 0 0 0.04 0"/>
<feBlend mode="normal" in2="BackgroundImageFix" result="effect1_dropShadow_1797_38210"/>
<feColorMatrix in="SourceAlpha" type="matrix" values="0 0 0 0 0 0 0 0 0 0 0 0 0 0 0 0 0 0 127 0" result="hardAlpha"/>
<feOffset dy="2.93333"/>
<feGaussianBlur stdDeviation="1.46667"/>
<feColorMatrix type="matrix" values="0 0 0 0 0 0 0 0 0 0.027451 0 0 0 0 0.0862745 0 0 0 0.03 0"/>
<feBlend mode="normal" in2="effect1_dropShadow_1797_38210" result="effect2_dropShadow_1797_38210"/>
<feColorMatrix in="SourceAlpha" type="matrix" values="0 0 0 0 0 0 0 0 0 0 0 0 0 0 0 0 0 0 127 0" result="hardAlpha"/>
<feOffset dy="7.33333"/>
<feGaussianBlur stdDeviation="2.2"/>
<feColorMatrix type="matrix" values="0 0 0 0 0 0 0 0 0 0.027451 0 0 0 0 0.0862745 0 0 0 0.02 0"/>
<feBlend mode="normal" in2="effect2_dropShadow_1797_38210" result="effect3_dropShadow_1797_38210"/>
<feColorMatrix in="SourceAlpha" type="matrix" values="0 0 0 0 0 0 0 0 0 0 0 0 0 0 0 0 0 0 127 0" result="hardAlpha"/>
<feOffset dy="12.4667"/>
<feGaussianBlur stdDeviation="2.56667"/>
<feColorMatrix type="matrix" values="0 0 0 0 0 0 0 0 0 0.027451 0 0 0 0 0.0862745 0 0 0 0.01 0"/>
<feBlend mode="normal" in2="effect3_dropShadow_1797_38210" result="effect4_dropShadow_1797_38210"/>
<feBlend mode="normal" in="SourceGraphic" in2="effect4_dropShadow_1797_38210" result="shape"/>
</filter>
<filter id="filter1_dddd_1797_38210" x="87.7333" y="114.3" width="240.533" height="111.4" filterUnits="userSpaceOnUse" color-interpolation-filters="sRGB">
<feFlood flood-opacity="0" result="BackgroundImageFix"/>
<feColorMatrix in="SourceAlpha" type="matrix" values="0 0 0 0 0 0 0 0 0 0 0 0 0 0 0 0 0 0 127 0" result="hardAlpha"/>
<feOffset dy="1.46667"/>
<feGaussianBlur stdDeviation="1.83333"/>
<feColorMatrix type="matrix" values="0 0 0 0 0 0 0 0 0 0 0 0 0 0 0 0 0 0 0.05 0"/>
<feBlend mode="normal" in2="BackgroundImageFix" result="effect1_dropShadow_1797_38210"/>
<feColorMatrix in="SourceAlpha" type="matrix" values="0 0 0 0 0 0 0 0 0 0 0 0 0 0 0 0 0 0 127 0" result="hardAlpha"/>
<feOffset dy="6.6"/>
<feGaussianBlur stdDeviation="3.3"/>
<feColorMatrix type="matrix" values="0 0 0 0 0 0 0 0 0 0 0 0 0 0 0 0 0 0 0.04 0"/>
<feBlend mode="normal" in2="effect1_dropShadow_1797_38210" result="effect2_dropShadow_1797_38210"/>
<feColorMatrix in="SourceAlpha" type="matrix" values="0 0 0 0 0 0 0 0 0 0 0 0 0 0 0 0 0 0 127 0" result="hardAlpha"/>
<feOffset dy="13.9333"/>
<feGaussianBlur stdDeviation="4.4"/>
<feColorMatrix type="matrix" values="0 0 0 0 0 0 0 0 0 0 0 0 0 0 0 0 0 0 0.03 0"/>
<feBlend mode="normal" in2="effect2_dropShadow_1797_38210" result="effect3_dropShadow_1797_38210"/>
<feColorMatrix in="SourceAlpha" type="matrix" values="0 0 0 0 0 0 0 0 0 0 0 0 0 0 0 0 0 0 127 0" result="hardAlpha"/>
<feOffset dy="24.9333"/>
<feGaussianBlur stdDeviation="5.13333"/>
<feColorMatrix type="matrix" values="0 0 0 0 0 0 0 0 0 0 0 0 0 0 0 0 0 0 0.01 0"/>
<feBlend mode="normal" in2="effect3_dropShadow_1797_38210" result="effect4_dropShadow_1797_38210"/>
<feBlend mode="normal" in="SourceGraphic" in2="effect4_dropShadow_1797_38210" result="shape"/>
</filter>
<radialGradient id="paint0_radial_1797_38210" cx="0" cy="0" r="1" gradientUnits="userSpaceOnUse" gradientTransform="translate(200 150) rotate(90) scale(150 200)">
<stop stop-color="white" stop-opacity="0"/>
<stop offset="1" stop-color="white"/>
</radialGradient>
<linearGradient id="paint1_linear_1797_38210" x1="98" y1="116.5" x2="318.395" y2="189.303" gradientUnits="userSpaceOnUse">
<stop stop-color="#341478"/>
<stop offset="0.335" stop-color="#7638FA"/>
<stop offset="0.68" stop-color="#BBF8FF"/>
<stop offset="1" stop-color="#3E8DFF"/>
</linearGradient>
<linearGradient id="paint2_linear_1797_38210" x1="98" y1="117" x2="318" y2="191" gradientUnits="userSpaceOnUse">
<stop stop-color="white" stop-opacity="0.75"/>
<stop offset="1" stop-color="white" stop-opacity="0"/>
</linearGradient>
<clipPath id="clip0_1797_38210">
<rect width="400" height="300" fill="white"/>
</clipPath>
</defs>
</svg>
